<svg xmlns="http://www.w3.org/2000/svg" width="237.405" height="254.455" viewBox="0 0 237.405 254.455" fill="rgb(151,138,78)">
  <path d="M 191.508 200.647 L 138.522 129.123 L 193.231 55.273 C 201.468 62.25 208.443 70.634 213.897 80.023 L 237.405 55.732 C 234.104 50.851 230.459 46.257 226.526 41.892 L 214.787 48.726 C 211.859 45.625 208.73 42.725 205.458 39.969 L 211.428 27.737 C 206.865 24.062 202.014 20.76 196.991 17.745 L 187.806 27.737 C 184.046 25.641 180.171 23.717 176.181 22.052 L 178.276 8.614 C 172.88 6.518 167.283 4.795 161.542 3.417 L 155.687 15.677 C 151.496 14.816 147.219 14.156 142.856 13.754 L 140.876 0.316 C 137.977 0.115 135.078 0 132.121 0 C 129.165 0 126.266 0.115 123.395 0.316 L 121.415 13.754 C 117.081 14.156 112.804 14.816 108.613 15.677 L 102.758 3.417 C 97.017 4.766 91.449 6.518 86.024 8.614 L 88.119 22.052 C 84.129 23.717 80.226 25.641 76.494 27.737 L 67.281 17.745 C 62.229 20.731 57.407 24.062 52.843 27.737 L 58.784 39.969 C 55.512 42.725 52.412 45.625 49.456 48.726 L 37.716 41.892 C 33.755 46.257 30.138 50.851 26.838 55.732 L 36.109 65.667 C 33.841 69.199 31.746 72.874 29.851 76.664 L 16.648 73.592 C 14.151 78.904 12.027 84.416 10.304 90.102 L 22.13 96.878 C 21.04 100.84 20.121 104.918 19.461 109.081 L 3.559 110.057 C 2.813 115.714 0 121.514 0 127.4 L 0 127.831 L 15.672 130.817 C 15.787 134.951 17.337 139.029 17.853 143.049 L 5.827 147.958 C 6.774 153.902 8.439 159.702 10.218 165.33 L 23.967 164.296 C 25.259 168.144 26.866 171.876 28.56 175.552 L 17.968 183.965 C 20.638 189.363 23.709 194.531 27.096 199.47 L 39.783 194.416 C 42.108 197.632 44.634 200.733 47.274 203.719 L 39.611 214.917 C 43.744 219.282 48.164 223.359 52.871 227.12 L 63.492 218.593 C 66.62 220.976 69.921 223.187 73.28 225.225 L 69.232 238.204 C 74.456 241.19 79.91 243.803 85.536 245.985 L 93.171 234.729 C 96.845 236.05 100.576 237.199 104.394 238.175 L 104.394 251.756 C 110.192 253.077 116.162 253.967 122.276 254.455 L 126.237 241.42 C 128.16 241.534 130.112 241.563 132.093 241.563 C 134.073 241.563 136.025 241.534 137.948 241.42 L 141.909 254.455 C 147.994 253.996 153.993 253.077 159.82 251.756 L 159.82 238.175 C 163.609 237.227 167.34 236.079 171.043 234.729 L 178.678 245.985 C 184.333 243.774 189.757 241.161 194.981 238.204 L 190.934 225.225 C 194.321 223.187 197.593 220.976 200.722 218.593 L 211.371 227.12 C 216.078 223.388 220.499 219.31 224.632 214.917 L 203.105 189.449 C 199.545 193.469 195.67 197.23 191.508 200.59 L 191.508 200.647 Z M 132.093 32.79 C 150.979 32.79 168.574 38.332 183.328 47.893 L 165.79 68.825 L 97.39 68.825 L 80.111 48.382 C 95.037 38.533 112.89 32.79 132.121 32.79 L 132.093 32.79 Z M 72.074 200.13 C 51.092 182.787 37.687 156.572 37.687 127.228 C 37.687 97.883 50.346 73.103 70.352 55.818 L 124.658 129.151 L 72.074 200.159 L 72.074 200.13 Z M 132.093 221.694 C 114.038 221.694 97.161 216.611 82.809 207.825 L 131.605 141.584 L 181.434 207.768 C 167.082 216.611 150.204 221.694 132.121 221.694 L 132.093 221.694 Z" fill="currentColor" fill-rule="nonzero"></path>
</svg>