<svg xmlns="http://www.w3.org/2000/svg" width="71.221" height="76.337" viewBox="0 0 71.221 76.337" fill="rgb(151,138,78)">
  <path d="M 57.453 60.194 L 41.557 38.737 L 57.969 16.582 C 60.441 18.675 62.533 21.19 64.169 24.007 L 71.221 16.72 C 70.231 15.255 69.138 13.877 67.958 12.568 L 64.436 14.618 C 63.558 13.688 62.619 12.818 61.637 11.991 L 63.429 8.321 C 62.059 7.218 60.604 6.228 59.097 5.323 L 56.342 8.321 C 55.214 7.692 54.051 7.115 52.854 6.615 L 53.483 2.584 C 51.864 1.955 50.185 1.439 48.463 1.025 L 46.706 4.703 C 45.449 4.445 44.166 4.247 42.857 4.126 L 42.263 0.095 C 41.393 0.034 40.523 0 39.636 0 C 38.749 0 37.88 0.034 37.019 0.095 L 36.424 4.126 C 35.124 4.247 33.841 4.445 32.584 4.703 L 30.827 1.025 C 29.105 1.43 27.435 1.955 25.807 2.584 L 26.436 6.615 C 25.239 7.115 24.068 7.692 22.948 8.321 L 20.184 5.323 C 18.669 6.219 17.222 7.218 15.853 8.321 L 17.635 11.991 C 16.654 12.818 15.724 13.688 14.837 14.618 L 11.315 12.568 C 10.127 13.877 9.042 15.255 8.051 16.72 L 10.833 19.7 C 10.152 20.76 9.524 21.862 8.955 22.999 L 4.994 22.077 C 4.245 23.671 3.608 25.325 3.091 27.03 L 6.639 29.063 C 6.312 30.252 6.036 31.475 5.838 32.724 L 1.068 33.017 C 0.844 34.714 0 36.454 0 38.22 L 0 38.349 L 4.702 39.245 C 4.736 40.485 5.201 41.709 5.356 42.915 L 1.748 44.388 C 2.032 46.171 2.532 47.911 3.066 49.599 L 7.19 49.289 C 7.578 50.443 8.06 51.563 8.568 52.666 L 5.39 55.189 C 6.191 56.809 7.113 58.359 8.129 59.841 L 11.935 58.325 C 12.632 59.29 13.39 60.22 14.182 61.116 L 11.883 64.475 C 13.123 65.785 14.449 67.008 15.861 68.136 L 19.048 65.578 C 19.986 66.293 20.976 66.956 21.984 67.568 L 20.77 71.461 C 22.337 72.357 23.973 73.141 25.661 73.795 L 27.951 70.419 C 29.053 70.815 30.173 71.16 31.318 71.452 L 31.318 75.527 C 33.058 75.923 34.849 76.19 36.683 76.337 L 37.871 72.426 C 38.448 72.46 39.034 72.469 39.628 72.469 C 40.222 72.469 40.807 72.46 41.384 72.426 L 42.573 76.337 C 44.398 76.199 46.198 75.923 47.946 75.527 L 47.946 71.452 C 49.083 71.168 50.202 70.824 51.313 70.419 L 53.603 73.795 C 55.3 73.132 56.927 72.348 58.494 71.461 L 57.28 67.568 C 58.296 66.956 59.278 66.293 60.217 65.578 L 63.411 68.136 C 64.824 67.016 66.15 65.793 67.39 64.475 L 60.931 56.835 C 59.864 58.041 58.701 59.169 57.453 60.177 L 57.453 60.194 Z M 39.628 9.837 C 45.294 9.837 50.572 11.5 54.998 14.368 L 49.737 20.648 L 29.217 20.648 L 24.033 14.514 C 28.511 11.56 33.867 9.837 39.636 9.837 L 39.628 9.837 Z M 21.622 60.039 C 15.328 54.836 11.306 46.972 11.306 38.168 C 11.306 29.365 15.104 21.931 21.106 16.745 L 37.398 38.745 L 21.622 60.048 L 21.622 60.039 Z M 39.628 66.508 C 34.211 66.508 29.148 64.983 24.843 62.348 L 39.481 42.475 L 54.43 62.33 C 50.125 64.983 45.061 66.508 39.636 66.508 L 39.628 66.508 Z" fill="currentColor" fill-rule="nonzero"></path>
</svg>